<svg xmlns="http://www.w3.org/2000/svg" width="17.646" height="17.646" viewBox="0 0 17.646 17.646"><path d="M263.359,1012.859a8.387,8.387,0,0,1,6.264-2.559,8.733,8.733,0,0,1,6.264,2.559,8.255,8.255,0,0,1,2.559,6.264,8.733,8.733,0,0,1-2.559,6.264,8.255,8.255,0,0,1-6.264,2.559,8.732,8.732,0,0,1-6.264-2.559,8.948,8.948,0,0,1,0-12.529Zm6.176,12.529a6.237,6.237,0,0,0,5.294-2.823c0-.794-.618-1.412-1.853-1.941a7.851,7.851,0,0,0-6.882,0c-1.235.529-1.853,1.147-1.853,1.941A6.036,6.036,0,0,0,269.535,1025.387Zm1.853-11.735a2.559,2.559,0,1,0,.794,1.853A2.54,2.54,0,0,0,271.387,1013.653Z" transform="translate(-260.8 -1010.3)" fill="#fff"/></svg>